<svg width="73" height="64" viewBox="0 0 73 64" fill="none" xmlns="http://www.w3.org/2000/svg">
<path id="Vector" d="M65.2733 31.5112H54.0193V22.508C54.0193 17.5422 58.0566 13.5048 63.0225 13.5048H64.1479C66.0188 13.5048 67.5241 11.9996 67.5241 10.1286V3.3762C67.5241 1.50522 66.0188 0 64.1479 0H63.0225C50.5868 0 40.5144 10.0723 40.5144 22.508V56.2701C40.5144 59.9979 43.539 63.0225 47.2668 63.0225H65.2733C69.0012 63.0225 72.0257 59.9979 72.0257 56.2701V38.2636C72.0257 34.5357 69.0012 31.5112 65.2733 31.5112ZM24.7588 31.5112H13.5048V22.508C13.5048 17.5422 17.5422 13.5048 22.508 13.5048H23.6334C25.5044 13.5048 27.0096 11.9996 27.0096 10.1286V3.3762C27.0096 1.50522 25.5044 0 23.6334 0H22.508C10.0723 0 0 10.0723 0 22.508V56.2701C0 59.9979 3.02452 63.0225 6.75241 63.0225H24.7588C28.4867 63.0225 31.5112 59.9979 31.5112 56.2701V38.2636C31.5112 34.5357 28.4867 31.5112 24.7588 31.5112Z" fill="#EFB41D" fill-opacity="0.5"/>
</svg>
